<svg width="77" height="77" viewBox="0 0 77 77" fill="none" xmlns="http://www.w3.org/2000/svg">
<path d="M38.5 0C17.2383 0 0 17.2383 0 38.5C0 59.7617 17.2383 77 38.5 77C59.7617 77 77 59.7617 77 38.5C77 17.2383 59.7617 0 38.5 0ZM54.421 45.9926L52.1678 56.5609C51.387 59.1269 49.8461 59.3832 47.6616 57.6874L37.0933 49.8551L31.7823 55.1124C29.9464 56.7993 28.5963 56.8112 27.9198 54.5223L24.2182 42.8811C23.9947 42.145 23.6549 41.6741 22.3943 41.379L12.577 38.1871C10.6726 37.1916 11.1286 36.1068 13.7036 34.9415L56.6741 18.3112C58.9272 18.0459 59.5054 18.4274 59.6246 20.5643L54.421 45.9926Z" fill="#A27E6A"/>
<path d="M50.408 26.0632L31.0121 42.9956C30.7904 43.1859 30.6505 43.4462 30.6155 43.7289L29.6735 51L26.0399 40.1577C25.9232 39.8078 26.069 39.4272 26.3927 39.2341L49.6731 25.3076C50.7259 24.7562 51.6416 24.9101 50.408 26.0632Z" fill="#A27E6A"/>
</svg>
