<svg width="77" height="77" viewBox="0 0 77 77" fill="none" xmlns="http://www.w3.org/2000/svg">
<path d="M38.5 77C59.763 77 77 59.763 77 38.5C77 17.237 59.763 0 38.5 0C17.237 0 0 17.237 0 38.5C0 59.763 17.237 77 38.5 77Z" fill="#A37E6A"/>
<path d="M45.6372 37.9247C48.5674 35.3419 51.422 30.8561 54.2012 24.6258C54.6316 23.7271 55.4473 23.3419 57.9168 23.4477L62.7198 23.4326C63.7847 23.4326 64.4039 24.0216 63.8979 25.6453C62.5159 29.3004 60.2277 32.9555 57.6675 36.6107L55.9683 39.1255C55.9683 39.1255 55.0621 39.8731 56.5347 41.391C58.0074 42.909 61.4737 46.4206 62.7878 48.2331C64.1018 50.0456 64.7815 51.133 64.9854 51.7901C65.1893 52.4471 65.2346 52.7869 64.9854 53.308C64.7362 53.8291 64.6003 54.2595 63.1956 54.3275C61.7909 54.3955 57.3277 54.3275 57.3277 54.3275C56.3006 54.3048 55.3491 53.8744 54.541 52.7869C51.8072 49.6604 49.4057 47.5157 47.1325 45.741C45.1388 44.3136 43.3565 44.3741 43.4622 47.7573L43.4547 52.2885C43.5302 53.6705 42.624 54.3502 39.9053 54.2369C33.7881 54.3955 29.3702 51.4276 25.3224 47.78C22.4073 44.6233 19.6659 40.4848 17.0529 35.644C15.3537 32.6837 14.1152 29.459 13.2694 25.9927C12.8389 24.5125 13.2467 23.6516 14.5608 23.4401H20.9951C22.0599 23.4779 22.9208 23.9461 23.306 25.4263C24.7635 29.6251 26.5987 33.4086 28.7661 36.8146C29.6572 38.189 30.6012 39.3898 31.6207 40.2583C32.8819 41.1418 33.7353 41.0588 33.7504 39.0122V29.9272C33.6975 28.3791 33.1236 26.9291 31.8473 25.6226C31.2356 24.8976 31.4848 23.4099 32.8442 23.4326H42.0198C42.8732 23.4628 43.5227 23.7648 43.4698 25.0562L43.6057 37.0109C43.6888 38.3401 44.1344 39.0499 45.6372 37.9247Z" fill="white"/>
</svg>
