<svg width="78" height="78" viewBox="0 0 78 78" fill="none" xmlns="http://www.w3.org/2000/svg">
<path d="M77.0731 37.7933C77.0731 58.6308 60.1334 75.5212 39.2351 75.5212C33.0274 75.5212 27.1671 74.0305 21.9961 71.3862H21.9942L0 77.0654L6.73263 57.1198C3.34506 51.4663 1.39901 44.8565 1.39901 37.7933C1.39901 16.9558 18.3387 0.0654297 39.237 0.0654297C60.1353 0.0654297 77.0731 16.9558 77.0731 37.7933Z" fill="#A27E6A"/>
<path d="M22.0303 36.5181C16.8182 31.7517 15.1703 27.0853 15.8443 22.483C16.3695 20.346 18.2912 17.8282 22.0303 14.8179C23.587 13.971 25.0637 12.932 27.8494 15.0871C29.9294 16.7252 31.9182 18.7276 33.7282 21.4572C34.6127 23.0657 34.8603 24.1834 32.6556 25.7755L30.7879 27.2068C29.0859 28.7218 28.4844 30.4041 29.6855 32.3623L42.5769 43.8598C44.6346 45.1319 46.7518 45.4996 49.0385 43.4003L51.3047 41.1057C52.219 40.2817 53.0905 39.809 54.582 40.3769C57.8892 41.9641 61.0008 43.9977 63.7381 46.8816C64.4289 48.2931 64.5351 49.6981 63.0957 51.0916C61.025 53.1252 58.8705 54.6779 56.6341 55.735C53.5802 56.9643 50.5617 56.9873 47.5693 56.1666C43.1393 54.8437 37.9812 50.7699 32.5643 45.7211L22.0303 36.5181Z" fill="white"/>
</svg>
